<?xml version="1.0" standalone="no"?>
<!DOCTYPE svg PUBLIC "-//W3C//DTD SVG 20010904//EN"
 "http://www.w3.org/TR/2001/REC-SVG-20010904/DTD/svg10.dtd">
<svg version="1.0" xmlns="http://www.w3.org/2000/svg"
 width="1000.000000pt" height="1000.000000pt" viewBox="0 0 1000.000000 1000.000000"
 preserveAspectRatio="xMidYMid meet">
<metadata>
Created by potrace 1.11, written by Peter Selinger 2001-2013
</metadata>
<g transform="translate(0.000000,1000.000000) scale(0.100000,-0.100000)"
fill="#000000" stroke="none">
<path d="M8300 9938 c-45 -53 -121 -102 -190 -122 -104 -31 -215 -20 -505 49
-253 61 -492 82 -636 55 -237 -43 -395 -189 -478 -440 -11 -36 -52 -207 -90
-380 -38 -173 -121 -540 -184 -815 -63 -275 -123 -536 -132 -580 -20 -93 -37
-130 -66 -145 -26 -15 -698 69 -1129 140 -237 39 -353 50 -544 50 -250 0 -444
-29 -643 -95 -265 -88 -483 -247 -618 -450 -78 -117 -630 -1339 -1320 -2920
-1344 -3080 -1372 -3142 -1666 -3672 l-79 -141 0 -111 0 -111 116 -125 117
-125 136 0 c136 0 137 0 201 34 145 77 1052 475 1705 749 624 262 1098 454
2770 1122 1661 664 1891 758 2067 846 668 335 919 779 895 1584 -7 214 -12
267 -57 645 -16 135 -36 324 -44 420 -8 97 -24 210 -35 254 -51 193 -20 227
327 376 68 29 176 84 240 123 153 92 272 147 566 263 545 215 771 364 942 621
l34 51 0 140 c0 137 -1 143 -49 313 -44 155 -127 403 -176 530 -11 28 -16 56
-11 72 3 15 58 81 121 148 l115 120 0 186 0 185 -66 121 c-85 158 -197 328
-290 444 -99 121 -278 292 -395 375 -105 75 -333 193 -451 232 -72 25 -87 26
-270 25 l-193 -1 -35 -40z m453 -401 c86 -41 342 -224 418 -300 56 -54 225
-252 292 -341 21 -27 52 -79 70 -115 40 -82 44 -172 10 -237 -31 -58 -125
-141 -226 -199 -162 -93 -450 -275 -637 -404 -784 -540 -787 -543 -816 -618
-44 -115 65 -273 188 -273 18 0 60 13 93 29 33 15 311 195 617 399 307 205
568 374 581 377 37 10 69 -25 129 -142 72 -139 100 -227 101 -323 1 -95 -22
-149 -95 -227 -79 -83 -149 -124 -575 -336 -567 -281 -964 -464 -1112 -513
-100 -32 -156 7 -249 176 -104 188 -519 566 -892 812 -123 81 -168 116 -178
139 -11 27 -1 78 108 545 136 583 179 771 255 1132 79 369 66 356 350 360 161
3 227 -1 338 -17 223 -33 294 -79 283 -183 -7 -69 -36 -126 -141 -283 -103
-154 -171 -277 -324 -586 -119 -240 -129 -283 -89 -359 46 -86 173 -139 254
-105 85 35 102 61 330 507 102 199 204 397 226 438 139 256 318 540 387 614
81 86 173 96 304 33z m-3521 -2312 c475 -63 873 -117 885 -120 13 -3 43 -18
68 -34 l45 -29 -31 -6 c-17 -3 -78 -6 -135 -6 -121 0 -233 -14 -318 -40 -113
-35 -322 -173 -378 -250 -59 -80 -48 -204 25 -287 60 -68 145 -93 321 -93 266
0 447 73 741 300 122 94 158 113 211 113 60 0 99 -28 174 -128 37 -49 91 -111
120 -138 31 -29 50 -54 48 -65 -2 -9 -26 -33 -53 -52 -72 -50 -250 -234 -317
-327 -150 -209 -214 -426 -188 -645 6 -56 21 -126 32 -156 26 -70 86 -136 144
-158 91 -35 174 -1 298 122 196 194 276 418 276 775 0 80 5 160 11 177 l11 31
30 -22 c39 -29 132 -169 165 -249 65 -159 88 -298 103 -613 12 -279 15 -307
50 -555 16 -113 34 -252 40 -309 13 -133 13 -368 -1 -468 -34 -259 -140 -477
-318 -654 -167 -167 -339 -257 -782 -408 -164 -56 -464 -170 -675 -257 -590
-243 -1382 -565 -2169 -882 -396 -160 -990 -399 -1320 -532 -418 -169 -615
-244 -651 -247 -47 -5 -52 -3 -80 29 -16 19 -41 55 -56 81 -19 32 -49 61 -105
98 -210 142 -294 277 -295 474 0 176 31 267 277 810 361 797 652 1460 1365
3110 254 589 474 1093 487 1120 83 166 239 338 389 428 147 88 363 149 582
166 59 4 108 9 109 10 1 0 390 -51 865 -114z m-4018 -6425 c-20 -20 -134 -78
-344 -174 l-315 -143 -3 31 c-2 23 24 88 92 235 105 223 114 239 194 355 l55
78 176 -176 176 -176 -31 -30z"/>
</g>
</svg>
